Coordinates
version=1
nRows=40
nColumns=38
inDegrees=no

Units are S.I. units (second, meters, Newtons, ...)
If the header above contains a line with 'inDegrees', this indicates whether rotational values are in degrees (yes) or radians (no).

endheader
time	pelvis_tilt	pelvis_list	pelvis_rotation	pelvis_tx	pelvis_ty	pelvis_tz	hip_flexion_r	hip_adduction_r	hip_rotation_r	knee_angle_r	ankle_angle_r	subtalar_angle_r	mtp_angle_r	hip_flexion_l	hip_adduction_l	hip_rotation_l	knee_angle_l	ankle_angle_l	subtalar_angle_l	mtp_angle_l	lumbar_extension	lumbar_bending	lumbar_rotation	arm_flex_r	arm_add_r	arm_rot_r	elbow_flex_r	pro_sup_r	wrist_flex_r	wrist_dev_r	arm_flex_l	arm_add_l	arm_rot_l	elbow_flex_l	pro_sup_l	wrist_flex_l	wrist_dev_l
0.49	-0.455597	1.29003	-0.977204	0.61839	0.838645	0.940509	-0.0746029	0.204654	-0.069751	0.316843	-0.231742	0	0	-0.103288	-0.252955	-0.0107387	1.32693	-0.33724	0	0	-0.46723	0.259438	-0.0399991	-0.0878569	-0.657698	0.89442	0.95321	0.456953	0	0	-0.274102	-0.206822	-0.0743875	0.735767	1.49022	0	0
0.5	-0.439818	1.28373	-0.994836	0.617796	0.82984	0.942016	-0.102756	0.208173	-0.0632358	0.296246	-0.235261	0	0	-0.0796454	-0.256098	-0.00884995	1.36586	-0.308731	0	0	-0.477452	0.25649	-0.0410928	-0.079741	-0.655429	0.901967	0.951191	0.453342	0	0	-0.27801	-0.208691	-0.0779741	0.74412	1.48803	0	0
0.51	-0.425253	1.27861	-1.01181	0.617266	0.821245	0.943474	-0.129532	0.210832	-0.0549481	0.275202	-0.239366	0	0	-0.055134	-0.257493	-0.00764963	1.39976	-0.282057	0	0	-0.486383	0.252962	-0.0418513	-0.0706311	-0.653137	0.911273	0.948224	0.449087	0	0	-0.280192	-0.209717	-0.0818511	0.749613	1.48618	0	0
0.52	-0.408784	1.27517	-1.03132	0.616789	0.812724	0.944828	-0.153709	0.211306	-0.0454231	0.257855	-0.242152	0	0	-0.0302016	-0.255641	-0.00657058	1.42765	-0.262695	0	0	-0.493859	0.247998	-0.0426837	-0.061756	-0.650963	0.920139	0.945242	0.444225	0	0	-0.281496	-0.210622	-0.0856336	0.753704	1.48431	0	0
0.53	-0.386654	1.27363	-1.05612	0.616405	0.804501	0.946355	-0.174387	0.207859	-0.0430045	0.245499	-0.244815	0	0	-0.00498104	-0.248575	-0.00260897	1.4481	-0.248006	0	0	-0.500307	0.240662	-0.0441855	-0.0517792	-0.647293	0.930279	0.93969	0.439933	0	0	-0.280243	-0.212086	-0.0877792	0.754733	1.48191	0	0
0.54	-0.366689	1.26959	-1.08148	0.615943	0.795853	0.947755	-0.196439	0.205167	-0.0455703	0.236642	-0.24577	0	0	0.0152513	-0.243971	-0.00404138	1.46271	-0.238177	0	0	-0.508121	0.234118	-0.0419566	-0.0455982	-0.646	0.937121	0.937869	0.437938	0	0	-0.279829	-0.213107	-0.0888829	0.756112	1.48035	0	0
0.55	-0.338109	1.26719	-1.11433	0.615713	0.787681	0.9492	-0.218688	0.199205	-0.0431906	0.223819	-0.247145	0	0	0.0353555	-0.232948	-0.00197916	1.47135	-0.224242	0	0	-0.516006	0.224641	-0.0414979	-0.0372677	-0.643712	0.946286	0.934249	0.43467	0	0	-0.277623	-0.214667	-0.0888689	0.756322	1.47985	0	0
0.56	-0.306671	1.2681	-1.14891	0.615596	0.779904	0.950552	-0.234419	0.18965	-0.0427443	0.21796	-0.247388	0	0	0.0584978	-0.217346	0.00252859	1.47469	-0.210659	0	0	-0.520777	0.213386	-0.0426016	-0.02756	-0.639586	0.956566	0.927233	0.429727	0	0	-0.272672	-0.216183	-0.0883435	0.75295	1.47938	0	0
0.57	-0.279583	1.26735	-1.17955	0.615391	0.771858	0.951728	-0.252804	0.182324	-0.0427502	0.207921	-0.247656	0	0	0.0788698	-0.20454	0.0039769	1.4734	-0.197631	0	0	-0.525896	0.203733	-0.042575	-0.0194762	-0.636331	0.965502	0.921767	0.424383	0	0	-0.269635	-0.217839	-0.0881672	0.752473	1.47612	0	0
0.58	-0.254598	1.26667	-1.20793	0.615267	0.763869	0.952729	-0.269567	0.174864	-0.0429667	0.200707	-0.247265	0	0	0.0983748	-0.192128	0.00447137	1.46716	-0.182073	0	0	-0.530638	0.194739	-0.0423288	-0.011616	-0.633698	0.97459	0.916922	0.41934	0	0	-0.266568	-0.219614	-0.0870706	0.752256	1.47272	0	0
0.59	-0.232579	1.26721	-1.23272	0.615248	0.755883	0.953413	-0.284259	0.167873	-0.0418951	0.194492	-0.245361	0	0	0.118549	-0.179539	0.00553071	1.45691	-0.164599	0	0	-0.533365	0.18636	-0.0421017	-0.00450812	-0.631376	0.983642	0.912342	0.414624	0	0	-0.263589	-0.221586	-0.085289	0.751526	1.47035	0	0
0.6	-0.212509	1.26874	-1.25451	0.615328	0.747915	0.953839	-0.29721	0.161482	-0.0406286	0.189151	-0.242128	0	0	0.138931	-0.167276	0.00675709	1.44215	-0.146443	0	0	-0.534534	0.178527	-0.042033	0.00167069	-0.628903	0.991748	0.907622	0.409525	0	0	-0.260806	-0.2243	-0.0823009	0.751103	1.46918	0	0
0.61	-0.195294	1.27003	-1.27298	0.615489	0.740028	0.954116	-0.309481	0.155954	-0.0425918	0.184533	-0.239289	0	0	0.158247	-0.155823	0.00834642	1.42245	-0.131269	0	0	-0.535829	0.171982	-0.0415558	0.00659316	-0.627091	0.997309	0.904236	0.405048	0	0	-0.257859	-0.22662	-0.0794861	0.751369	1.46817	0	0
0.62	-0.179888	1.27107	-1.2912	0.615681	0.732289	0.954325	-0.320991	0.150265	-0.0418266	0.181314	-0.236186	0	0	0.175537	-0.145073	0.0078379	1.39676	-0.118077	0	0	-0.537855	0.165706	-0.0395675	0.0117347	-0.626578	1.00279	0.902325	0.400742	0	0	-0.254669	-0.228147	-0.0771124	0.75277	1.46502	0	0
0.63	-0.16299	1.27178	-1.3126	0.615858	0.724969	0.954504	-0.331365	0.143575	-0.0325621	0.180978	-0.230766	0	0	0.190025	-0.135755	0.0021122	1.36346	-0.108192	0	0	-0.541493	0.158498	-0.0362275	0.0183413	-0.62741	1.00938	0.902137	0.394972	0	0	-0.250359	-0.229855	-0.0734518	0.754295	1.4614	0	0
0.64	-0.0723928	1.26611	-1.40768	0.61337	0.719054	0.959159	-0.351647	0.118848	-0.0211436	0.17846	-0.233133	0	0	0.186763	-0.111404	-0.0117407	1.29693	-0.128039	0	0	-0.558255	0.125107	-0.0349038	0.0337014	-0.600638	1.02005	0.867326	0.389688	0	0	-0.225834	-0.241427	-0.0600381	0.731951	1.45997	0	0
0.65	-0.0591653	1.27048	-1.41977	0.613687	0.711232	0.958758	-0.357666	0.115116	-0.0194114	0.177551	-0.229722	0	0	0.202519	-0.103309	-0.0123543	1.25252	-0.129892	0	0	-0.555082	0.1199	-0.0358862	0.0376934	-0.596937	1.0251	0.861671	0.387025	0	0	-0.221531	-0.245331	-0.0527849	0.730054	1.45624	0	0
0.66	-0.118112	1.2826	-1.35721	0.6167	0.701625	0.953847	-0.353968	0.129714	-0.022589	0.177474	-0.213976	0	0	0.232856	-0.111775	-0.00541332	1.22903	-0.105184	0	0	-0.536161	0.140929	-0.0364113	0.0319161	-0.619055	1.02748	0.888162	0.379324	0	0	-0.235224	-0.241373	-0.0496603	0.746878	1.44529	0	0
0.67	-0.108726	1.28607	-1.36547	0.616963	0.69367	0.953299	-0.362737	0.127935	-0.0183533	0.173166	-0.208974	0	0	0.243885	-0.104536	-0.00371766	1.17707	-0.103462	0	0	-0.534143	0.137281	-0.036805	0.035295	-0.615988	1.03229	0.883757	0.374825	0	0	-0.230444	-0.244653	-0.0425876	0.743852	1.43961	0	0
0.68	-0.0936463	1.28973	-1.37886	0.617175	0.685929	0.952978	-0.371291	0.124649	-0.0146397	0.169104	-0.204929	0	0	0.250743	-0.0982567	-0.00940785	1.11613	-0.105731	0	0	-0.532355	0.131644	-0.0377612	0.039052	-0.610096	1.0359	0.875372	0.370235	0	0	-0.223758	-0.249234	-0.0327918	0.737702	1.43579	0	0
0.69	-0.0777986	1.29352	-1.39361	0.617308	0.678119	0.952704	-0.379696	0.121023	-0.0111814	0.165343	-0.200624	0	0	0.253907	-0.0924528	-0.0188837	1.04896	-0.110107	0	0	-0.530342	0.125465	-0.0377566	0.0422209	-0.603518	1.03921	0.865779	0.367201	0	0	-0.216115	-0.253564	-0.0227476	0.729898	1.43322	0	0
0.7	-0.0659278	1.29768	-1.40449	0.617634	0.670039	0.952159	-0.388497	0.118297	-0.00757921	0.159922	-0.195766	0	0	0.25599	-0.0863198	-0.0250813	0.981309	-0.11305	0	0	-0.527452	0.12126	-0.0382564	0.0445067	-0.59902	1.04172	0.858929	0.36606	0	0	-0.209487	-0.255792	-0.0158435	0.723544	1.42681	0	0
0.71	-0.0566672	1.302	-1.41135	0.6182	0.661677	0.951296	-0.398436	0.116723	-0.00539876	0.152055	-0.191504	0	0	0.257025	-0.0796013	-0.0270305	0.912781	-0.114322	0	0	-0.523646	0.118446	-0.0400815	0.0455944	-0.595273	1.04334	0.853514	0.366399	0	0	-0.204914	-0.258087	-0.00934375	0.719142	1.42066	0	0
0.72	-0.0512396	1.30653	-1.41406	0.618938	0.653165	0.95015	-0.408366	0.116113	-0.00423134	0.144073	-0.188346	0	0	0.257092	-0.0734301	-0.0267637	0.842806	-0.114123	0	0	-0.519438	0.116779	-0.0422621	0.0453011	-0.592666	1.0422	0.850206	0.36643	0	0	-0.202543	-0.259908	-0.00472678	0.716965	1.41601	0	0
0.73	-0.0510078	1.31114	-1.41169	0.619847	0.644513	0.948749	-0.417939	0.11658	-0.00429666	0.136648	-0.18543	0	0	0.256451	-0.067976	-0.023312	0.772278	-0.113776	0	0	-0.514896	0.116595	-0.0440899	0.0437727	-0.591466	1.03928	0.848974	0.366596	0	0	-0.201662	-0.26122	-0.000937017	0.716043	1.41286	0	0
0.74	-0.0540201	1.31637	-1.40579	0.620848	0.635802	0.947144	-0.426759	0.117873	-0.00436483	0.129274	-0.182419	0	0	0.254621	-0.0635652	-0.0202751	0.698462	-0.112801	0	0	-0.509696	0.117242	-0.0457324	0.0417052	-0.590632	1.03621	0.848307	0.36787	0	0	-0.201247	-0.262413	0.0024879	0.71573	1.41132	0	0
0.75	-0.0586014	1.32176	-1.39817	0.621874	0.626999	0.945464	-0.434663	0.119556	-0.00591012	0.123572	-0.179254	0	0	0.25058	-0.0600687	-0.0189961	0.620474	-0.114954	0	0	-0.504192	0.118305	-0.0473597	0.0393783	-0.589975	1.03311	0.847758	0.369765	0	0	-0.200941	-0.2634	0.00519821	0.716003	1.4088	0	0
0.76	-0.0624807	1.32665	-1.39216	0.622932	0.61813	0.943829	-0.441575	0.120501	-0.00938353	0.121424	-0.175497	0	0	0.243132	-0.0574721	-0.0218979	0.53853	-0.12183	0	0	-0.499305	0.118758	-0.0482491	0.0370995	-0.589322	1.02979	0.846912	0.371731	0	0	-0.20047	-0.264546	0.00904267	0.715735	1.40785	0	0
0.77	-0.0667258	1.33227	-1.38598	0.624176	0.609201	0.942074	-0.446049	0.120864	-0.0142047	0.122956	-0.170561	0	0	0.235242	-0.0546164	-0.025968	0.4578	-0.130519	0	0	-0.493723	0.119414	-0.0491411	0.0343215	-0.589351	1.0256	0.846724	0.37365	0	0	-0.199966	-0.265094	0.0128457	0.715432	1.40524	0	0
0.78	-0.0657891	1.3424	-1.38265	0.62577	0.600537	0.940219	-0.443352	0.119519	-0.0209754	0.129253	-0.162634	0	0	0.232895	-0.0471716	-0.0241993	0.38308	-0.143583	0	0	-0.483806	0.119077	-0.0515336	0.0310225	-0.58695	1.02022	0.842164	0.378001	0	0	-0.195684	-0.265075	0.0190177	0.709108	1.40154	0	0
0.79	-0.076008	1.34351	-1.37433	0.626749	0.59075	0.938544	-0.452143	0.121078	-0.0234306	0.132879	-0.15763	0	0	0.215825	-0.0472721	-0.0357705	0.308961	-0.145268	0	0	-0.481558	0.119959	-0.0483473	0.0261543	-0.588953	1.01633	0.844772	0.381688	0	0	-0.197904	-0.26518	0.0216583	0.710228	1.39949	0	0
0.8	-0.0782421	1.34597	-1.37266	0.627972	0.581484	0.937118	-0.457184	0.120341	-0.0257912	0.141013	-0.152102	0	0	0.201665	-0.0436967	-0.0444083	0.243191	-0.149991	0	0	-0.479685	0.11936	-0.0464998	0.0224301	-0.589456	1.0112	0.845125	0.384505	0	0	-0.197277	-0.265428	0.0254164	0.709098	1.39875	0	0
0.81	-0.0798337	1.34872	-1.37214	0.629235	0.572157	0.935773	-0.46071	0.118806	-0.0271229	0.152097	-0.146163	0	0	0.18999	-0.0403349	-0.055418	0.188386	-0.156416	0	0	-0.477387	0.118234	-0.0437133	0.0182862	-0.5894	1.00573	0.844279	0.387569	0	0	-0.195656	-0.265347	0.0297989	0.706145	1.39905	0	0
0.82	-0.0819912	1.3505	-1.37155	0.630532	0.5627	0.934535	-0.464556	0.116987	-0.0276119	0.165037	-0.140517	0	0	0.180404	-0.0380359	-0.0674622	0.148986	-0.164467	0	0	-0.475892	0.117216	-0.0400962	0.013388	-0.589754	0.999259	0.844032	0.390648	0	0	-0.194247	-0.265277	0.0346663	0.703384	1.40098	0	0
0.83	-0.0851965	1.35156	-1.37028	0.631904	0.553014	0.93335	-0.469344	0.115109	-0.027116	0.177497	-0.136721	0	0	0.174398	-0.036512	-0.0782373	0.131768	-0.16945	0	0	-0.474933	0.116635	-0.0366329	0.0085931	-0.591082	0.993838	0.845156	0.393477	0	0	-0.194131	-0.264368	0.0371365	0.70249	1.40089	0	0
0.84	-0.0850859	1.35147	-1.37245	0.63333	0.543215	0.93237	-0.474806	0.112313	-0.0274171	0.191434	-0.133695	0	0	0.170634	-0.0351733	-0.0861145	0.136523	-0.172777	0	0	-0.475268	0.115635	-0.0332686	0.00330453	-0.592842	0.987643	0.847404	0.39646	0	0	-0.194284	-0.262875	0.0380919	0.701867	1.40004	0	0
0.85	-0.0820542	1.35056	-1.37755	0.634762	0.533324	0.931597	-0.480924	0.108856	-0.0274531	0.205289	-0.132547	0	0	0.168498	-0.0332103	-0.0896216	0.160127	-0.173518	0	0	-0.476312	0.113804	-0.0303892	-0.00128999	-0.59408	0.98311	0.848981	0.399006	0	0	-0.19542	-0.261887	0.0389647	0.702013	1.40049	0	0
0.86	-0.074988	1.3497	-1.38632	0.636292	0.523329	0.93096	-0.485354	0.104258	-0.0306265	0.223609	-0.131421	0	0	0.167481	-0.0294361	-0.0877279	0.197047	-0.168365	0	0	-0.477586	0.111249	-0.0275845	-0.00766206	-0.594979	0.974871	0.850778	0.402736	0	0	-0.195979	-0.260931	0.0403601	0.701779	1.40245	0	0
0.87	-0.0648528	1.34937	-1.39817	0.637979	0.512998	0.930435	-0.489298	0.0985263	-0.034792	0.242196	-0.131924	0	0	0.165318	-0.0238049	-0.084849	0.232953	-0.157382	0	0	-0.477566	0.108197	-0.0252948	-0.015375	-0.595334	0.964898	0.85171	0.407522	0	0	-0.196514	-0.259169	0.0407526	0.700003	1.40398	0	0
0.88	-0.0499958	1.349	-1.41411	0.639851	0.502309	0.930084	-0.493915	0.0918588	-0.0399149	0.259961	-0.134376	0	0	0.160275	-0.0162016	-0.0815494	0.258203	-0.146335	0	0	-0.476738	0.104194	-0.0236565	-0.0240769	-0.594743	0.954663	0.851202	0.413568	0	0	-0.197448	-0.257235	0.0411361	0.697048	1.40693	0	0
